<?xml version="1.0" standalone="no"?>
<!DOCTYPE svg PUBLIC "-//W3C//DTD SVG 20010904//EN"
 "http://www.w3.org/TR/2001/REC-SVG-20010904/DTD/svg10.dtd">
<svg version="1.0" xmlns="http://www.w3.org/2000/svg"
 width="540.000000pt" height="540.000000pt" viewBox="0 0 540.000000 540.000000"
 preserveAspectRatio="xMidYMid meet">
<metadata>
Created by potrace 1.11, written by Peter Selinger 2001-2013
</metadata>
<g transform="translate(0.000000,540.000000) scale(0.100000,-0.100000)"
fill="#000000" stroke="none">
<path d="M4080 4623 c-322 -54 -2529 -483 -2846 -553 -157 -35 -151 -31 -419
-249 -394 -319 -663 -551 -676 -583 -8 -19 -14 -65 -13 -108 0 -87 -55 44 510
-1212 196 -436 372 -824 392 -862 45 -85 124 -173 189 -208 62 -34 161 -52
238 -43 75 8 222 40 675 149 1183 283 2767 673 2807 692 45 22 112 88 128 129
14 31 69 388 156 995 l42 294 -23 41 c-39 69 -451 714 -635 995 -185 283 -343
481 -409 511 -40 18 -65 21 -116 12z m-1149 -1351 c93 -196 143 -315 136 -317
-7 -2 -34 -8 -61 -13 l-48 -10 -28 61 c-16 34 -82 177 -148 317 l-120 255 41
12 c78 22 68 35 228 -305z m-615 124 c29 -65 29 -65 64 -60 33 5 37 3 53 -30
23 -48 22 -56 -7 -56 -14 0 -27 -3 -29 -7 -6 -10 110 -262 131 -286 11 -13 24
-16 44 -12 26 6 30 3 47 -37 l18 -43 -46 -12 c-81 -22 -115 -17 -147 20 -16
18 -62 103 -103 189 l-74 156 -31 -5 c-30 -5 -33 -2 -48 35 -17 44 -15 52 14
52 24 0 23 7 -8 75 -28 59 -25 70 16 78 72 13 75 11 106 -57z m399 -42 c14
-31 25 -58 25 -59 0 -2 -16 -6 -35 -9 -34 -7 -55 -29 -55 -61 0 -9 32 -84 70
-167 39 -83 70 -154 70 -158 0 -9 -114 -30 -118 -21 -1 3 -51 110 -111 236
-80 171 -105 232 -95 238 7 4 33 10 59 14 41 5 47 4 52 -16 6 -24 23 -29 23
-6 0 23 46 65 70 65 15 0 27 -14 45 -56z m-587 -118 c38 -26 92 -94 92 -115 0
-5 -23 -15 -52 -21 -47 -12 -53 -11 -63 5 -28 48 -48 65 -75 65 -65 0 -62 -46
12 -195 51 -101 72 -125 114 -125 40 0 48 18 29 73 -16 48 -13 52 53 62 52 8
56 3 71 -66 21 -94 -13 -139 -120 -159 -107 -20 -187 33 -261 175 -64 124 -81
210 -52 266 36 71 173 90 252 35z"/>
</g>
</svg>
